<?xml version="1.0" encoding="UTF-8" standalone="no"?>
<svg
   width="5in"
   height="3in"
   viewBox="0 0 127 76.200002"
   version="1.1"
   id="svg8"
   inkscape:version="1.1.1 (3bf5ae0d25, 2021-09-20, custom)"
   sodipodi:docname="2dof_car_FBD.svg"
   xmlns:inkscape="http://www.inkscape.org/namespaces/inkscape"
   xmlns:sodipodi="http://sodipodi.sourceforge.net/DTD/sodipodi-0.dtd"
   xmlns="http://www.w3.org/2000/svg"
   xmlns:svg="http://www.w3.org/2000/svg"
   xmlns:rdf="http://www.w3.org/1999/02/22-rdf-syntax-ns#"
   xmlns:cc="http://creativecommons.org/ns#"
   xmlns:dc="http://purl.org/dc/elements/1.1/">
  <defs
     id="defs2" />
  <sodipodi:namedview
     id="base"
     pagecolor="#ffffff"
     bordercolor="#666666"
     borderopacity="1.0"
     inkscape:pageopacity="0.0"
     inkscape:pageshadow="2"
     inkscape:zoom="2.8802083"
     inkscape:cx="376.53526"
     inkscape:cy="135.05967"
     inkscape:document-units="mm"
     inkscape:current-layer="layer1"
     inkscape:document-rotation="0"
     showgrid="false"
     units="in"
     inkscape:window-width="1343"
     inkscape:window-height="908"
     inkscape:window-x="569"
     inkscape:window-y="136"
     inkscape:window-maximized="0"
     inkscape:pagecheckerboard="0"
     inkscape:snap-global="false" />
  <metadata
     id="metadata5">
    <rdf:RDF>
      <cc:Work
         rdf:about="">
        <dc:format>image/svg+xml</dc:format>
        <dc:type
           rdf:resource="http://purl.org/dc/dcmitype/StillImage" />
      </cc:Work>
    </rdf:RDF>
  </metadata>
  <g
     inkscape:label="Layer 1"
     inkscape:groupmode="layer"
     id="layer1">
    <rect
       style="fill:#ffffff;stroke:#000000;stroke-width:0.529167;stroke-miterlimit:4;stroke-dasharray:none"
       id="rect879"
       width="30.075851"
       height="8.4882488"
       x="2.9609966"
       y="30.381792"
       ry="2.455857"
       transform="rotate(-12.303578)" />
    <rect
       style="fill:#ffffff;stroke:#000000;stroke-width:0.337422;stroke-miterlimit:4;stroke-dasharray:none"
       id="rect879-3"
       width="29.930904"
       height="8.6475916"
       x="42.049438"
       y="50.94978"
       ry="0.99214178"
       transform="rotate(-17.461872)" />
    <path
       style="fill:none;stroke:#000000;stroke-width:0.281785px;stroke-linecap:butt;stroke-linejoin:miter;stroke-opacity:1"
       d="m 36.328283,31.751541 c -0.125533,0.556698 -0.151247,1.125033 -0.202931,1.692218 -0.05185,0.568987 -0.09349,1.137123 -0.143237,1.705854 -0.02043,0.233355 -0.04455,0.463846 -0.07162,0.695996 -0.0069,0.0593 -0.02388,0.237238 -0.02388,0.177406 0,-0.609984 1.093253,-1.045486 1.48018,-0.750587 0.653137,0.497792 0.730376,2.108113 0.525227,2.865855 -0.21932,0.810079 -1.832655,1.991007 -2.124775,0.655045 -0.334578,-1.530122 2.106446,-1.419129 2.602251,0.05459 0.377039,1.120695 -0.04533,3.184672 -1.229502,3.42536 -0.444836,0.09042 -1.380776,-0.289476 -1.21757,-0.98257 0.337945,-1.435181 3.102019,-1.285542 3.187169,1.391982 0.02187,0.687511 -0.109407,1.475078 -0.441667,2.060677 -0.40365,0.711422 -1.796431,1.387391 -2.232207,0.341175 -0.431426,-1.035782 0.795432,-1.493167 1.396622,-0.900691 0.909679,0.896495 0.968197,2.926513 0.298417,3.998528 -0.118352,0.18943 -0.241787,0.368812 -0.417786,0.491289 -0.09202,0.06404 -0.328619,-0.09565 -0.322299,0.0273 0.03184,0.61929 0.169221,4.53077 -0.167118,4.53077"
       id="path1012" />
    <rect
       style="fill:#ffffff;stroke:#000000;stroke-width:0.529167;stroke-miterlimit:4;stroke-dasharray:none"
       id="rect1239"
       width="7.6667624"
       height="7.6667624"
       x="33.610497"
       y="52.696018"
       ry="3.8333812" />
    <path
       style="fill:none;stroke:#000000;stroke-width:0.264583px;stroke-linecap:butt;stroke-linejoin:miter;stroke-opacity:1"
       d="m 61.027382,56.670725 c 0.283438,-0.874874 0.214453,-1.74762 0.203729,-2.648516 -0.03017,-2.534716 -0.143803,-5.062876 -0.143803,-7.598005 0,-0.672711 -0.111202,-1.317239 -0.227695,-1.977401 -0.07894,-0.447339 -0.05921,-0.839372 -0.05993,-0.838896 -0.741312,0.494364 -1.256239,1.45496 -2.00134,2.001364 -0.157321,0.115367 0.262498,-0.288684 0.395473,-0.431435 0.439073,-0.471363 0.865634,-0.956579 1.234358,-1.48604 0.09515,-0.136623 0.08841,-0.464097 0.251669,-0.431435 0.262913,0.0526 0.23477,0.483974 0.383497,0.707068 0.51747,0.776226 1.717114,2.171557 2.133169,2.468763"
       id="path1579" />
    <path
       style="fill:none;stroke:#000000;stroke-width:0.264583px;stroke-linecap:butt;stroke-linejoin:miter;stroke-opacity:1"
       d="m 70.542276,40.885015 c 0.03595,-0.271642 0.07662,-0.542705 0.107855,-0.814932 0.03124,-0.272225 -0.07854,0.542493 -0.107855,0.814932 -0.03929,0.365154 -0.164309,6.87895 0.09587,5.057354"
       id="path1587" />
    <path
       style="fill:none;stroke:#000000;stroke-width:0.264583px;stroke-linecap:butt;stroke-linejoin:miter;stroke-opacity:1"
       d="m 68.26529,45.798552 c 0.693241,0.220367 1.127149,2.455892 2.013329,2.265022 1.074867,-0.231511 1.884693,-2.111788 2.480704,-2.912174"
       id="path1589" />
    <path
       style="fill:none;stroke:#000000;stroke-width:0.264583px;stroke-linecap:butt;stroke-linejoin:miter;stroke-opacity:1"
       d="m 74.413141,43.389717 c 0.163928,-0.08624 0.09059,1.898801 0.203732,1.785657 0.524803,-0.52483 0.713859,-1.356413 1.330235,-1.80962 0.400701,-0.294624 0.06217,0.860131 0.383487,0.671118 0.337153,-0.198337 0.814493,-0.994725 1.246357,-0.970725 0.253267,0.01408 0.196654,1.501725 0.527288,1.749695"
       id="path1591" />
    <path
       style="fill:none;stroke:#000000;stroke-width:0.264583px;stroke-linecap:butt;stroke-linejoin:miter;stroke-opacity:1"
       d="m 79.530354,42.910355 c -0.09062,0.177639 -1.371301,1.134822 -1.042603,1.665804 0.569523,0.920022 2.684954,-1.553361 1.689745,-1.677792 -0.198551,-0.02482 0.01532,0.489789 0.359532,1.210405 0.450633,0.94338 1.640141,2.717401 1.342213,3.966787 -0.391486,1.641724 -2.625495,0.770993 -3.331589,-0.03595"
       id="path1593" />
    <path
       style="fill:none;stroke:#000000;stroke-width:0.264583px;stroke-linecap:butt;stroke-linejoin:miter;stroke-opacity:1"
       d="M 7.1343527,6.6724609 C 6.762847,6.8082829 6.3717582,6.8993326 6.0198351,7.0799271 5.9365911,7.1226452 4.1167229,8.4437065 4.4139559,8.6258917 5.0133429,8.9932781 6.2143062,8.400135 6.9066589,8.5539894 8.1525413,8.8308494 6.6675724,10.496448 6.2355417,10.890917"
       id="path1595" />
    <path
       style="fill:none;stroke:#000000;stroke-width:0.264583px;stroke-linecap:butt;stroke-linejoin:miter;stroke-opacity:1"
       d="M 10.154346,9.5127264 C 9.758692,10.185455 9.7468853,10.685488 9.7468853,11.394255"
       id="path1597" />
    <path
       style="fill:none;stroke:#000000;stroke-width:0.264583px;stroke-linecap:butt;stroke-linejoin:miter;stroke-opacity:1"
       d="m 11.568471,9.3928858 c 0.745971,3.4733942 0.556569,0.059454 2.04928,-0.4673868 0.415917,-0.1467948 0.06206,1.592384 0.323571,1.342234 0.188693,-0.180494 1.39225,-1.7588241 1.581904,-1.5939027 0.05839,0.050776 -0.04404,1.2347437 0.239682,1.7377127"
       id="path1599" />
    <path
       style="fill:none;stroke:#000000;stroke-width:0.264583px;stroke-linecap:butt;stroke-linejoin:miter;stroke-opacity:1"
       d="m 17.081167,9.9681314 c -0.08796,1.8909866 -0.02581,0.2108626 -0.04794,1.8815226 -0.0042,0.319653 -0.01161,0.639301 -0.02397,0.958743 -0.217771,5.626014 -0.619127,-4.1741857 1.018651,-4.6738558 1.261798,-0.3849619 0.817288,1.0772325 0.503338,1.5219952 -0.428827,0.6075066 -0.715488,0.7676836 -1.306272,1.1744606"
       id="path1601" />
    <path
       style="fill:none;stroke:#000000;stroke-width:0.264583px;stroke-linecap:butt;stroke-linejoin:miter;stroke-opacity:1"
       d="M 21.035922,4.7909323 C 20.484616,6.3944915 20.110995,8.5582807 20.652425,10.231782"
       id="path1603" />
    <path
       style="fill:none;stroke:#000000;stroke-width:0.264583px;stroke-linecap:butt;stroke-linejoin:miter;stroke-opacity:1"
       d="m 22.569888,8.7217688 c 0.335555,-0.067912 0.689009,-0.076048 1.006664,-0.203736 C 24.146829,8.2887991 23.908721,7.2098164 23.061238,8.0266825 21.1977,9.8228974 22.564833,10.105668 24.283609,9.740426 24.517175,9.690793 24.739005,9.5966181 24.966703,9.5247139"
       id="path1605" />
    <path
       style="fill:none;stroke:#000000;stroke-width:0.264583px;stroke-linecap:butt;stroke-linejoin:miter;stroke-opacity:1"
       d="M 9.4113378,6.3009512 C 11.116448,5.1387343 10.570457,6.8428015 10.202285,6.7683379 9.9021221,6.7076295 9.6749869,6.4567469 9.4113378,6.3009512 Z"
       id="path1607" />
    <path
       style="fill:none;stroke:#000000;stroke-width:0.264583px;stroke-linecap:butt;stroke-linejoin:miter;stroke-opacity:1"
       d="M 62.956336,10.291703 C 62.401859,11.511587 62.47752,6.3804412 62.668718,6.3488842 64.080295,5.4464259 65.721355,5.0962996 67.342517,4.7549812"
       id="path1609" />
    <path
       style="fill:none;stroke:#000000;stroke-width:0.264583px;stroke-linecap:butt;stroke-linejoin:miter;stroke-opacity:1"
       d="m 62.28522,8.0027131 c 1.174872,0.016301 2.318153,-0.2351625 3.463417,-0.4553993"
       id="path1611" />
    <path
       style="fill:none;stroke:#000000;stroke-width:0.264583px;stroke-linecap:butt;stroke-linejoin:miter;stroke-opacity:1"
       d="M 69.008309,9.3209781 C 68.684375,8.3132363 68.943713,7.11554 68.876483,6.0492824 c 0.914022,-0.8633754 1.670913,-1.494358 2.852214,-0.8868348 0.747195,0.3842695 -0.345003,1.0255565 -0.647142,1.1864366 -0.187673,0.09993 -0.77264,0.19667 -0.575229,0.2756382 0.595665,0.238277 1.184601,-0.1750155 1.797611,0.347546 0.888073,0.7570384 -1.73688,2.2081417 -2.217059,2.3009768 -0.353335,0.068312 -0.719046,0.031955 -1.078569,0.047933 z"
       id="path1613" />
    <path
       style="fill:none;stroke:#000000;stroke-width:0.264583px;stroke-linecap:butt;stroke-linejoin:miter;stroke-opacity:1"
       d="m 74.784646,8.9135171 c -0.489337,0.037633 0.0061,-2.9511632 -0.02397,-3.2357499 0.39947,-0.2596587 0.729804,-0.6929054 1.198409,-0.778976 0.9597,-0.176272 2.929127,1.1815844 2.972077,2.2410564 0.05262,1.298052 -2.339529,2.6003569 -3.391514,2.229069 -0.277149,-0.097817 -0.503335,-0.3035997 -0.755002,-0.4553995 z"
       id="path1615" />
    <path
       style="fill:none;stroke:#000000;stroke-width:0.264583px;stroke-linecap:butt;stroke-linejoin:miter;stroke-opacity:1"
       d="m 61.434347,12.161244 c 6.44253,-0.854479 12.957535,-0.666832 19.438241,-0.59921 1.00262,0.01046 2.005375,0.0215 3.008006,0.01198 0.316547,-0.003 1.184629,0.02657 0.934749,-0.167779 -0.321024,-0.249686 -1.125286,-0.213955 -1.486014,-0.107859"
       id="path1617" />
    <path
       style="fill:none;stroke:#000000;stroke-width:0.264583px;stroke-linecap:butt;stroke-linejoin:miter;stroke-opacity:1"
       d="m 4.7255509,14.4023 c 4.914158,-0.468373 9.8065081,-1.150902 14.7164791,-1.665811 1.756633,-0.184218 3.94461,-0.07967 5.680476,-0.635166"
       id="path1619" />
    <path
       style="fill:none;stroke:#000000;stroke-width:0.213491px;stroke-linecap:butt;stroke-linejoin:miter;stroke-opacity:1"
       d="m 13.556777,36.900108 c -0.127516,0.314584 -0.153635,0.635746 -0.206136,0.956257 -0.05266,0.321529 -0.09497,0.642579 -0.145499,0.963963 -0.02075,0.131867 -0.04526,0.262115 -0.07275,0.393301 -0.007,0.03352 -0.02426,0.134062 -0.02426,0.100251 0,-0.344697 1.110522,-0.590795 1.503561,-0.424151 0.663454,0.281299 0.741913,1.191277 0.533523,1.61947 -0.222784,0.457769 -1.861603,1.1251 -2.158337,0.37016 -0.339863,-0.864658 2.139719,-0.801937 2.643355,0.03085 0.382996,0.633294 -0.04604,1.799629 -1.248923,1.935639 -0.451862,0.0511 -1.402587,-0.16358 -1.236802,-0.555241 0.343283,-0.811009 3.151018,-0.726449 3.237513,0.786597 0.02222,0.388506 -0.111135,0.833553 -0.448644,1.16447 -0.410026,0.402019 -1.824807,0.784003 -2.267466,0.192795 -0.438241,-0.585311 0.807996,-0.843775 1.418683,-0.508972 0.924047,0.506601 0.98349,1.653746 0.30313,2.259532 -0.120221,0.107046 -0.245606,0.208413 -0.424385,0.277624 -0.09347,0.03619 -0.33381,-0.05405 -0.32739,0.01542 0.03235,0.349954 0.171893,2.560298 -0.169758,2.560298"
       id="path1812" />
    <rect
       style="fill:#ffffff;stroke:#000000;stroke-width:0.529167;stroke-miterlimit:4;stroke-dasharray:none"
       id="rect1814"
       width="7.6667624"
       height="7.6667624"
       x="10.856311"
       y="48.462681"
       ry="3.8333812" />
    <path
       style="fill:none;stroke:#000000;stroke-width:0.264583px;stroke-linecap:butt;stroke-linejoin:miter;stroke-opacity:1"
       d="m 84.060598,49.701662 c 0.283438,-0.874874 0.214453,-1.74762 0.203729,-2.648516 -0.03017,-2.534716 -0.143803,-5.062876 -0.143803,-7.598005 0,-0.672711 -0.111202,-1.317239 -0.227695,-1.977401 -0.07894,-0.447339 -0.05921,-0.839372 -0.05993,-0.838896 -0.741312,0.494364 -1.256239,1.45496 -2.00134,2.001364 -0.157321,0.115367 0.262498,-0.288684 0.395473,-0.431435 0.439073,-0.471363 0.865634,-0.956579 1.234358,-1.48604 0.09515,-0.136623 0.08841,-0.464097 0.251669,-0.431435 0.262913,0.0526 0.23477,0.483974 0.383497,0.707068 0.51747,0.776226 1.717114,2.171557 2.133169,2.468763"
       id="path2250" />
    <path
       style="fill:none;stroke:#000000;stroke-width:0.264583px;stroke-linecap:butt;stroke-linejoin:miter;stroke-opacity:1"
       d="m 56.125392,63.274056 c 0.07733,3.092391 -0.388045,-3.386548 0.383487,-3.906875 0.880215,-0.762758 2.415298,-0.565148 3.115871,-1.545963"
       id="path2285" />
    <path
       style="fill:none;stroke:#000000;stroke-width:0.264583px;stroke-linecap:butt;stroke-linejoin:miter;stroke-opacity:1"
       d="m 56.269196,61.164826 c 0.830244,-0.291697 2.024557,-0.195638 2.70841,-0.82692"
       id="path2287" />
    <path
       style="fill:none;stroke:#000000;stroke-width:0.264583px;stroke-linecap:butt;stroke-linejoin:miter;stroke-opacity:1"
       d="m 59.33713,63.04635 c 0.06065,0.549206 0.01331,2.158333 0.251669,2.372884"
       id="path2289" />
    <path
       style="fill:none;stroke:#000000;stroke-width:0.264583px;stroke-linecap:butt;stroke-linejoin:miter;stroke-opacity:1"
       d="m 85.090978,55.244602 c -0.293923,1.175782 -0.189499,-5.161639 -0.131829,-3.846935 1.127813,0.146231 2.225853,0.03302 3.295638,-0.323582"
       id="path2291" />
    <path
       style="fill:none;stroke:#000000;stroke-width:0.264583px;stroke-linecap:butt;stroke-linejoin:miter;stroke-opacity:1"
       d="m 84.707491,53.638711 c 0.739135,0.03716 1.435253,-0.03988 2.145157,-0.203729"
       id="path2293" />
    <path
       style="fill:none;stroke:#000000;stroke-width:0.264583px;stroke-linecap:butt;stroke-linejoin:miter;stroke-opacity:1"
       d="m 87.284083,55.304528 c 2.029182,-0.597572 1.358413,2.383578 -0.09588,2.085253 -0.651643,-0.133673 0.397639,-0.818611 1.150479,-0.611191 0.67922,0.187138 1.29567,0.689753 2.013331,0.587227"
       id="path2295" />
    <path
       style="fill:none;stroke:#000000;stroke-width:0.264583px;stroke-linecap:butt;stroke-linejoin:miter;stroke-opacity:1"
       d="m 3.2874508,61.18879 c 1.539444,-1.251085 3.5381414,-1.716665 5.3688805,-2.420811 3.7787317,-1.453398 9.1601657,-3.921077 13.2304637,-2.157169 0.773273,0.335108 1.377618,0.899978 2.085231,1.342237 1.385445,0.865899 2.793967,1.798478 4.254361,2.528676 1.915036,0.957516 6.327754,1.606901 8.460777,1.426122 3.036187,-0.257326 5.824614,-2.088364 8.269034,-3.787021 0.653113,-0.453855 2.353889,-2.11677 2.972064,-2.205103"
       id="path2297" />
    <rect
       style="fill:#ffffff;stroke:#000000;stroke-width:0.337422;stroke-miterlimit:4;stroke-dasharray:none"
       id="rect2379"
       width="29.930904"
       height="8.6475916"
       x="78.898476"
       y="62.541214"
       ry="0.99214178"
       transform="rotate(-17.461872)" />
    <path
       style="fill:none;stroke:#000000;stroke-width:0.264583px;stroke-linecap:butt;stroke-linejoin:miter;stroke-opacity:1"
       d="m 109.45821,35.715117 c 0.30404,-2.324082 0.18533,-4.698 0.36551,-7.040748 0.0222,-0.288449 0.32986,-1.611188 0.2217,-1.827596 -0.0176,-0.03515 -0.86375,0.590836 -0.93475,0.647147 -0.4898,0.388448 0.55709,-1.030563 0.62916,-1.066595 0.25292,-0.12646 0.86875,0.747664 1.03663,0.874849 0.13373,0.101322 0.29776,0.110162 0.41944,0.22171"
       id="path2414" />
    <path
       style="fill:none;stroke:#000000;stroke-width:0.264583px;stroke-linecap:butt;stroke-linejoin:miter;stroke-opacity:1"
       d="m 109.79375,35.709121 c -0.13838,-0.118536 -0.3407,0.01625 -0.49733,-0.03595 -0.004,-0.0013 0.008,-0.004 0.012,-0.006 0.47419,-0.04993 -0.69751,0.06399 0.48535,0.04194 0.19915,-0.0037 0.39423,-0.06286 0.59321,-0.07191 0.49646,-0.02257 1.02107,0.147331 1.52199,0.167778 0.69205,0.02825 1.38826,-0.02096 2.07925,0.02996 1.33308,0.09823 2.64702,0.398351 3.97871,0.50933 0.50097,0.04175 0.99942,0.08747 1.49802,0.149805 0.005,5.29e-4 0.51898,0.05096 0.51531,0.01797 -0.005,-0.04423 -0.81232,-0.758052 -0.89281,-0.844891 -0.073,-0.07875 -0.34107,-0.22171 -0.23369,-0.22171 0.14306,0 0.42993,0.235569 0.55726,0.305601 0.55533,0.30543 0.80623,0.297059 0.32357,0.796952 -0.205,0.212328 -0.77806,0.806937 -0.85686,0.868857"
       id="path2416" />
    <path
       style="fill:none;stroke:#000000;stroke-width:0.264583px;stroke-linecap:butt;stroke-linejoin:miter;stroke-opacity:1"
       d="m 102.90289,24.378017 c 0.14603,-0.04145 -0.003,0.846591 0.0479,0.820921 0.33742,-0.168687 -0.0964,-0.731407 -0.0479,-0.820921 0.11652,-0.215328 0.45389,-0.187816 0.66512,-0.311589 0.06,-0.03517 0.1264,-0.191718 0.16179,-0.131828 0.16208,0.274287 -0.0931,0.822756 0.012,0.778976 0.10751,-0.04479 0.52603,-0.78608 0.59322,-0.605203 0.12583,0.338799 0.0186,0.890166 0.46138,1.006675"
       id="path2418" />
    <path
       style="fill:none;stroke:#000000;stroke-width:0.264583px;stroke-linecap:butt;stroke-linejoin:miter;stroke-opacity:1"
       d="m 105.69519,24.180278 c 0.19927,0.211561 0.53195,0.695321 0.80294,0.796954"
       id="path2420" />
    <path
       style="fill:none;stroke:#000000;stroke-width:0.264583px;stroke-linecap:butt;stroke-linejoin:miter;stroke-opacity:1"
       d="m 106.90559,24.198253 c -0.17117,0.641184 -0.53128,1.211202 -0.82091,1.80363 -0.0354,0.07231 -0.42466,0.79659 -0.1558,0.671117"
       id="path2422" />
    <path
       style="fill:none;stroke:#000000;stroke-width:0.264583px;stroke-linecap:butt;stroke-linejoin:miter;stroke-opacity:1"
       d="m 105.3896,22.490501 c 0.0631,0.533671 -0.0461,0.468273 0,0 z"
       id="path2424" />
    <path
       style="fill:none;stroke:#000000;stroke-width:0.264583px;stroke-linecap:butt;stroke-linejoin:miter;stroke-opacity:1"
       d="m 106.51611,22.376648 c 0.30973,0.753143 0.0274,0.431666 0,0 z"
       id="path2426" />
    <path
       style="fill:none;stroke:#000000;stroke-width:0.264583px;stroke-linecap:butt;stroke-linejoin:miter;stroke-opacity:1"
       d="m 116.8524,39.741818 c 0.0499,0.147807 0.12329,0.289674 0.1498,0.443418 0.0271,0.156999 -0.19555,0.380783 -0.0659,0.47338 0.0247,0.01767 0.82116,-1.122146 1.00667,-1.096558 0.11245,0.0155 -0.1747,1.034449 -0.0539,0.92878 0.0944,-0.08263 0.72314,-0.956119 0.80893,-0.862867 0.16366,0.177895 -0.15424,0.964507 0.11984,1.348229"
       id="path2428" />
    <path
       style="fill:none;stroke:#000000;stroke-width:0.264583px;stroke-linecap:butt;stroke-linejoin:miter;stroke-opacity:1"
       d="m 120.10009,40.239169 c 0.42834,0.35515 1.0953,1.177914 1.53997,1.222393"
       id="path2430" />
    <path
       style="fill:none;stroke:#000000;stroke-width:0.264583px;stroke-linecap:butt;stroke-linejoin:miter;stroke-opacity:1"
       d="m 121.2326,40.388971 c -0.35487,0.5056 -1.02514,1.018034 -1.28231,1.468069"
       id="path2432" />
    <path
       style="fill:none;stroke:#000000;stroke-width:0.264583px;stroke-linecap:butt;stroke-linejoin:miter;stroke-opacity:1"
       d="m 120.05215,39.076696 c 0.67102,-0.627428 0.46775,0.215754 0.3056,0.197736 -0.12059,-0.01339 -0.20373,-0.131823 -0.3056,-0.197736 z"
       id="path2434" />
    <path
       style="fill:none;stroke:#000000;stroke-width:0.264583px;stroke-linecap:butt;stroke-linejoin:miter;stroke-opacity:1"
       d="m 121.42434,38.974831 c 0.13382,0.0021 0.2745,-0.03634 0.40147,0.006 0.10327,0.03442 0.003,0.453374 -0.12584,0.461399 -0.22423,0.01402 -0.23912,-0.370028 -0.27563,-0.467387 z"
       id="path2436" />
    <path
       style="fill:none;stroke:#000000;stroke-width:0.264583px;stroke-linecap:butt;stroke-linejoin:miter;stroke-opacity:1"
       d="m 106.06071,42.731888 c 0.13981,0.103862 0.27352,0.216493 0.41944,0.311589 0.6508,0.42413 3.61514,0.480581 4.32627,0.323578 0.47653,-0.105209 0.94817,-0.33895 1.34222,-0.623179 0.91747,-0.661773 1.95683,-1.521335 2.43277,-2.576615 0.3653,-0.809985 0.53231,-0.84645 -0.40147,-0.43143 -0.22402,0.09957 -0.62725,0.183872 -0.81492,0.371509 -0.0134,0.01339 0.0361,-0.01146 0.0539,-0.01797 0.21333,-0.07805 0.24024,-0.08665 0.46739,-0.203737 0.26109,-0.134586 0.51963,-0.279374 0.73702,-0.479367 0.0314,-0.02886 0.21203,-0.311589 0.27563,-0.311589 0.088,0 -0.0105,0.175694 -0.012,0.263655 -0.006,0.322368 -0.005,0.6566 0.0779,0.970719 0.1457,0.550418 0.72414,0.982419 0.50932,0.910804"
       id="path2438" />
    <path
       style="fill:none;stroke:#000000;stroke-width:0.264583px;stroke-linecap:butt;stroke-linejoin:miter;stroke-opacity:1"
       d="m 108.34967,45.374417 c 0.4385,-0.928601 0.0311,-0.264322 0,0 -0.0334,0.284112 0.0433,0.570841 0.0479,0.856871 0.005,0.279345 -0.0581,1.417304 0.0539,0.946756"
       id="path2440" />
    <path
       style="fill:none;stroke:#000000;stroke-width:0.264583px;stroke-linecap:butt;stroke-linejoin:miter;stroke-opacity:1"
       d="m 107.1273,45.104772 c 0.83566,-0.532538 2.04421,-0.503838 3.04396,-0.575244 0.095,-0.0068 -0.1877,0.03228 -0.28163,0.04794"
       id="path2442" />
    <path
       style="fill:none;stroke:#000000;stroke-width:0.264583px;stroke-linecap:butt;stroke-linejoin:miter;stroke-opacity:1"
       d="m 107.31305,47.441701 c 1.06499,-0.158398 2.1198,-0.39734 3.19376,-0.485362"
       id="path2444" />
    <path
       style="fill:none;stroke:#000000;stroke-width:0.264583px;stroke-linecap:butt;stroke-linejoin:miter;stroke-opacity:1"
       d="m 113.20324,46.261252 c -0.0131,-0.05794 0.24887,-0.459359 0.13782,-0.635166 -0.29449,-0.466231 -2.35446,0.958138 -0.99469,1.629854 0.1988,0.09821 0.39116,0.123852 0.61119,0.125833 0.28091,0.0026 0.60939,-0.03985 0.84489,-0.209722 0.64439,-0.464828 0.18638,-1.742675 -0.64714,-1.372192"
       id="path2446" />
    <path
       style="fill:none;stroke:#000000;stroke-width:0.264583px;stroke-linecap:butt;stroke-linejoin:miter;stroke-opacity:1"
       d="m 112.63998,46.776571 c 0.5153,-0.229373 1.14333,-0.304364 1.6598,-0.443418"
       id="path2448" />
    <path
       style="fill:none;stroke:#000000;stroke-width:0.264583px;stroke-linecap:butt;stroke-linejoin:miter;stroke-opacity:1"
       d="m 113.54479,44.295835 c 0.12982,-0.02996 0.25629,-0.08608 0.38948,-0.08988 0.0278,-7.93e-4 0.0247,0.05059 0.03,0.0779 0.0134,0.06873 0.0552,0.22933 -0.012,0.209724 -0.14493,-0.04227 -0.4854,-0.06846 -0.40745,-0.197741 0.33902,-0.562272 0.91491,-0.229328 0.58722,0.04794"
       id="path2450" />
    <path
       style="fill:none;stroke:#000000;stroke-width:0.264583px;stroke-linecap:butt;stroke-linejoin:miter;stroke-opacity:1"
       d="m 112.23852,44.289839 c 0.99487,-0.597712 0.49509,0.186497 0.35353,0.155797 -0.12585,-0.02729 -0.23569,-0.103864 -0.35353,-0.155797 z"
       id="path2452" />
  </g>
</svg>
