<?xml version="1.0" encoding="UTF-8" standalone="no"?>
<svg
   xmlns:dc="http://purl.org/dc/elements/1.1/"
   xmlns:cc="http://creativecommons.org/ns#"
   xmlns:rdf="http://www.w3.org/1999/02/22-rdf-syntax-ns#"
   xmlns:svg="http://www.w3.org/2000/svg"
   xmlns="http://www.w3.org/2000/svg"
   xmlns:sodipodi="http://sodipodi.sourceforge.net/DTD/sodipodi-0.dtd"
   xmlns:inkscape="http://www.inkscape.org/namespaces/inkscape"
   width="4in"
   height="3in"
   viewBox="0 0 178.39872 133.79904"
   version="1.1"
   id="svg8"
   inkscape:version="1.0.2 (e86c870879, 2021-01-15)"
   sodipodi:docname="CVT-spring-mass.svg">
  <defs
     id="defs2">
    <marker
       style="overflow:visible;"
       id="Arrow2Lend"
       refX="0.0"
       refY="0.0"
       orient="auto"
       inkscape:stockid="Arrow2Lend"
       inkscape:isstock="true">
      <path
         transform="scale(1.1) rotate(180) translate(1,0)"
         d="M 8.7185878,4.0337352 L -2.2072895,0.016013256 L 8.7185884,-4.0017078 C 6.9730900,-1.6296469 6.9831476,1.6157441 8.7185878,4.0337352 z "
         style="fill-rule:evenodd;stroke-width:0.625;stroke-linejoin:round;stroke:#000000;stroke-opacity:1;fill:#000000;fill-opacity:1"
         id="path1691" />
    </marker>
    <marker
       style="overflow:visible"
       id="marker2165"
       refX="0.0"
       refY="0.0"
       orient="auto"
       inkscape:stockid="Arrow2Lstart"
       inkscape:isstock="true">
      <path
         transform="scale(1.1) translate(1,0)"
         d="M 8.7185878,4.0337352 L -2.2072895,0.016013256 L 8.7185884,-4.0017078 C 6.9730900,-1.6296469 6.9831476,1.6157441 8.7185878,4.0337352 z "
         style="fill-rule:evenodd;stroke-width:0.625;stroke-linejoin:round;stroke:#000000;stroke-opacity:1;fill:#000000;fill-opacity:1"
         id="path2163" />
    </marker>
    <marker
       style="overflow:visible"
       id="Arrow2Lstart"
       refX="0.0"
       refY="0.0"
       orient="auto"
       inkscape:stockid="Arrow2Lstart"
       inkscape:isstock="true"
       inkscape:collect="always">
      <path
         transform="scale(1.1) translate(1,0)"
         d="M 8.7185878,4.0337352 L -2.2072895,0.016013256 L 8.7185884,-4.0017078 C 6.9730900,-1.6296469 6.9831476,1.6157441 8.7185878,4.0337352 z "
         style="fill-rule:evenodd;stroke-width:0.625;stroke-linejoin:round;stroke:#000000;stroke-opacity:1;fill:#000000;fill-opacity:1"
         id="path1688" />
    </marker>
    <marker
       style="overflow:visible;"
       id="marker1954"
       refX="0.0"
       refY="0.0"
       orient="auto"
       inkscape:stockid="Arrow1Lend"
       inkscape:isstock="true">
      <path
         transform="scale(0.8) rotate(180) translate(12.5,0)"
         style="fill-rule:evenodd;stroke:#000000;stroke-width:1pt;stroke-opacity:1;fill:#000000;fill-opacity:1"
         d="M 0.0,0.0 L 5.0,-5.0 L -12.5,0.0 L 5.0,5.0 L 0.0,0.0 z "
         id="path1952" />
    </marker>
    <marker
       style="overflow:visible;"
       id="Arrow1Lend"
       refX="0.0"
       refY="0.0"
       orient="auto"
       inkscape:stockid="Arrow1Lend"
       inkscape:isstock="true">
      <path
         transform="scale(0.8) rotate(180) translate(12.5,0)"
         style="fill-rule:evenodd;stroke:#000000;stroke-width:1pt;stroke-opacity:1;fill:#000000;fill-opacity:1"
         d="M 0.0,0.0 L 5.0,-5.0 L -12.5,0.0 L 5.0,5.0 L 0.0,0.0 z "
         id="path1673" />
    </marker>
  </defs>
  <sodipodi:namedview
     id="base"
     pagecolor="#ffffff"
     bordercolor="#666666"
     borderopacity="1.0"
     inkscape:pageopacity="0.0"
     inkscape:pageshadow="2"
     inkscape:zoom="1.8541667"
     inkscape:cx="192"
     inkscape:cy="132.62647"
     inkscape:document-units="px"
     inkscape:current-layer="layer1"
     inkscape:document-rotation="0"
     showgrid="false"
     units="in"
     objecttolerance="6.8"
     guidetolerance="5.6"
     scale-x="0.46458"
     inkscape:window-width="1327"
     inkscape:window-height="846"
     inkscape:window-x="213"
     inkscape:window-y="292"
     inkscape:window-maximized="0" />
  <metadata
     id="metadata5">
    <rdf:RDF>
      <cc:Work
         rdf:about="">
        <dc:format>image/svg+xml</dc:format>
        <dc:type
           rdf:resource="http://purl.org/dc/dcmitype/StillImage" />
        <dc:title></dc:title>
      </cc:Work>
    </rdf:RDF>
  </metadata>
  <g
     inkscape:label="Layer 1"
     inkscape:groupmode="layer"
     id="layer1">
    <circle
       style="fill:#ffffff;stroke:#000000;stroke-width:0.92916;stroke-miterlimit:4;stroke-dasharray:none"
       id="path830"
       sodipodi:type="arc"
       sodipodi:cx="35.233135"
       sodipodi:cy="101.61184"
       sodipodi:rx="30.164839"
       sodipodi:ry="30.164839"
       sodipodi:start="3.5800368"
       sodipodi:end="3.5772268"
       sodipodi:open="true"
       sodipodi:arc-type="arc"
       d="M 7.92149,88.805921 A 30.164839,30.164839 0 0 1 48.019864,74.291205 30.164839,30.164839 0 0 1 62.562746,114.37937 30.164839,30.164839 0 0 1 22.484805,128.95041 30.164839,30.164839 0 0 1 7.8856132,88.882718" />
    <path
       sodipodi:nodetypes="ccccccccccccccccccccccccccccccccccccccccccccccccccc"
       d="m 57.471284,101.11138 -3.49871,-0.0646 c -0.01429,-0.8777 0.297128,-1.593986 0.738988,-1.593986 0.692351,0 0.920273,0.716286 0.920273,1.598846 0,1.08192 -0.895897,1.59885 -1.421253,1.59885 -0.525358,0 -1.504751,-0.45241 -1.504752,-1.59885 -10e-7,-0.88256 0.311416,-1.598846 0.753277,-1.598846 0.692351,0 0.920272,0.716286 0.920272,1.598846 0,1.08192 -0.895896,1.59885 -1.421253,1.59885 -0.525358,0 -1.504751,-0.45241 -1.504752,-1.59885 -10e-7,-0.88256 0.311416,-1.598846 0.753277,-1.598846 0.692352,0 0.920273,0.716286 0.920273,1.598846 0,1.08192 -0.895897,1.59885 -1.421253,1.59885 -0.525359,0 -1.504752,-0.45241 -1.504752,-1.59885 0,-0.88256 0.311418,-1.598846 0.753279,-1.598846 0.692352,0 0.920273,0.716286 0.920273,1.598846 0,1.08192 -0.895897,1.59885 -1.421254,1.59885 -0.525358,0 -1.504751,-0.45241 -1.504748,-1.59885 3e-6,-0.88256 0.31142,-1.598846 0.753282,-1.598846 0.692351,0 0.920273,0.716286 0.920273,1.598846 0,1.08192 -0.895898,1.59885 -1.421255,1.59885 -0.525358,0 -1.50475,-0.45241 -1.50475,-1.59885 0,-0.88256 0.311417,-1.598846 0.753278,-1.598846 0.692352,0 0.920273,0.716286 0.920273,1.598846 0,1.08192 -0.895897,1.59885 -1.421254,1.59885 -0.525358,0 -1.50475,-0.45241 -1.50475,-1.59885 0,-0.88256 0.311417,-1.598846 0.753278,-1.598846 0.692351,0 0.920273,0.716286 0.920273,1.598846 0,1.08192 -0.895897,1.59885 -1.421254,1.59885 -0.525358,0 -1.504751,-0.45241 -1.504751,-1.59885 0,-0.88256 0.311418,-1.598846 0.753279,-1.598846 0.692351,0 0.920273,0.716286 0.920273,1.598846 0,1.08192 -0.895897,1.59885 -1.421254,1.59885 -0.525358,0 -1.504751,-0.45241 -1.504751,-1.59885 10e-7,-0.88256 0.311419,-1.598846 0.753279,-1.598846 0.692352,0 0.920273,0.716286 0.920273,1.598846 0,1.08192 -0.895897,1.59885 -1.421254,1.59885 -0.525358,0 -1.50475,-0.45241 -1.50475,-1.59885 0,-0.88256 0.311417,-1.598846 0.753278,-1.598846 0.692352,0 0.920273,0.716286 0.920273,1.598846 0,1.08192 -0.895897,1.59885 -1.421254,1.59885 -0.525358,0 -1.504751,-0.45241 -1.504751,-1.59885 0,-0.88256 0.311418,-1.598846 0.753279,-1.598846 0.692352,0 0.920273,0.716286 0.920273,1.598846 0,1.08192 -0.895897,1.59885 -1.421254,1.59885 -0.525358,0 -1.504751,-0.45241 -1.504751,-1.59885 0,-0.88256 0.311418,-1.598846 0.753279,-1.598846 0.692351,0 0.920273,0.716286 0.920273,1.598846 0,1.08192 -0.895897,1.59885 -1.421254,1.59885 -0.525359,0 -1.504751,-0.46624 -1.484667,-1.6265 H 37.08973"
       style="fill:none;fill-opacity:1;fill-rule:nonzero;stroke:#000000;stroke-width:0.301467;stroke-miterlimit:4;stroke-opacity:1"
       id="path5102"
       inkscape:connector-curvature="0" />
    <path
       sodipodi:nodetypes="ccccccccccccccccccccccccccccccccccccccccccccccccccc"
       d="m 33.373722,101.20562 -3.49871,-0.0646 c -0.01429,-0.8777 0.297128,-1.593986 0.738988,-1.593986 0.692351,0 0.920273,0.716286 0.920273,1.598846 0,1.08192 -0.895897,1.59885 -1.421253,1.59885 -0.525358,0 -1.504751,-0.45241 -1.504752,-1.59885 -10e-7,-0.88256 0.311416,-1.598846 0.753277,-1.598846 0.692351,0 0.920272,0.716286 0.920272,1.598846 0,1.08192 -0.895896,1.59885 -1.421253,1.59885 -0.525358,0 -1.504751,-0.45241 -1.504752,-1.59885 -1e-6,-0.88256 0.311416,-1.598846 0.753277,-1.598846 0.692352,0 0.920273,0.716286 0.920273,1.598846 0,1.08192 -0.895897,1.59885 -1.421253,1.59885 -0.525359,0 -1.504752,-0.45241 -1.504752,-1.59885 0,-0.88256 0.311418,-1.598846 0.753279,-1.598846 0.692352,0 0.920273,0.716286 0.920273,1.598846 0,1.08192 -0.895897,1.59885 -1.421254,1.59885 -0.525358,0 -1.504751,-0.45241 -1.504748,-1.59885 3e-6,-0.88256 0.31142,-1.598846 0.753282,-1.598846 0.692351,0 0.920273,0.716286 0.920273,1.598846 0,1.08192 -0.895898,1.59885 -1.421255,1.59885 -0.525358,0 -1.50475,-0.45241 -1.50475,-1.59885 0,-0.88256 0.311417,-1.598846 0.753278,-1.598846 0.692352,0 0.920273,0.716286 0.920273,1.598846 0,1.08192 -0.895897,1.59885 -1.421254,1.59885 -0.525358,0 -1.50475,-0.45241 -1.50475,-1.59885 0,-0.88256 0.311417,-1.598846 0.753278,-1.598846 0.692351,0 0.920273,0.716286 0.920273,1.598846 0,1.08192 -0.895897,1.59885 -1.421254,1.59885 -0.525358,0 -1.504751,-0.45241 -1.504751,-1.59885 0,-0.88256 0.311418,-1.598846 0.753279,-1.598846 0.692351,0 0.920273,0.716286 0.920273,1.598846 0,1.08192 -0.895897,1.59885 -1.421254,1.59885 -0.525358,0 -1.504751,-0.45241 -1.504751,-1.59885 10e-7,-0.88256 0.311419,-1.598846 0.753279,-1.598846 0.692352,0 0.920273,0.716286 0.920273,1.598846 0,1.08192 -0.895897,1.59885 -1.421254,1.59885 -0.525358,0 -1.50475,-0.45241 -1.50475,-1.59885 0,-0.88256 0.311417,-1.598846 0.753278,-1.598846 0.692352,0 0.920273,0.716286 0.920273,1.598846 0,1.08192 -0.895897,1.59885 -1.421254,1.59885 -0.525358,0 -1.504751,-0.45241 -1.504751,-1.59885 0,-0.88256 0.311418,-1.598846 0.753279,-1.598846 0.692352,0 0.920273,0.716286 0.920273,1.598846 0,1.08192 -0.895897,1.59885 -1.421254,1.59885 -0.525358,0 -1.504751,-0.45241 -1.504751,-1.59885 0,-0.88256 0.311418,-1.598846 0.753279,-1.598846 0.692351,0 0.920273,0.716286 0.920273,1.598846 0,1.08192 -0.895897,1.59885 -1.421254,1.59885 -0.525359,0 -1.504751,-0.46624 -1.484667,-1.6265 h -1.859201"
       style="fill:none;fill-opacity:1;fill-rule:nonzero;stroke:#000000;stroke-width:0.301467;stroke-miterlimit:4;stroke-opacity:1"
       id="path5102-3"
       inkscape:connector-curvature="0" />
    <path
       sodipodi:nodetypes="ccccccccccccccccccccccccccccccccccccccccccccccccccc"
       d="m 35.202285,99.257584 0.0646,-3.498713 c 0.8777,-0.01429 1.59399,0.297128 1.59399,0.738988 0,0.692351 -0.71629,0.920273 -1.59885,0.920273 -1.08192,0 -1.59885,-0.895897 -1.59885,-1.421253 0,-0.525358 0.45241,-1.504751 1.59885,-1.504752 0.88256,-10e-7 1.59885,0.311416 1.59885,0.753277 0,0.692351 -0.71629,0.920272 -1.59885,0.920272 -1.08192,0 -1.59885,-0.895896 -1.59885,-1.421253 0,-0.525358 0.45241,-1.504751 1.59885,-1.504752 0.88256,-10e-7 1.59885,0.311416 1.59885,0.753277 0,0.692352 -0.71629,0.920273 -1.59885,0.920273 -1.08192,0 -1.59885,-0.895897 -1.59885,-1.421253 0,-0.525359 0.45241,-1.504752 1.59885,-1.504752 0.88256,0 1.59885,0.311418 1.59885,0.753279 0,0.692352 -0.71629,0.920273 -1.59885,0.920273 -1.08192,0 -1.59885,-0.895897 -1.59885,-1.421254 0,-0.525358 0.45241,-1.504751 1.59885,-1.504748 0.88256,3e-6 1.59885,0.31142 1.59885,0.753282 0,0.692351 -0.71629,0.920273 -1.59885,0.920273 -1.08192,0 -1.59885,-0.895898 -1.59885,-1.421255 0,-0.525358 0.45241,-1.50475 1.59885,-1.50475 0.88256,0 1.59885,0.311417 1.59885,0.753278 0,0.692352 -0.71629,0.920273 -1.59885,0.920273 -1.08192,0 -1.59885,-0.895897 -1.59885,-1.421254 0,-0.525358 0.45241,-1.50475 1.59885,-1.50475 0.88256,0 1.59885,0.311417 1.59885,0.753278 0,0.692351 -0.71629,0.920273 -1.59885,0.920273 -1.08192,0 -1.59885,-0.895897 -1.59885,-1.421254 0,-0.525358 0.45241,-1.504751 1.59885,-1.504751 0.88256,0 1.59885,0.311418 1.59885,0.753279 0,0.692351 -0.71629,0.920273 -1.59885,0.920273 -1.08192,0 -1.59885,-0.895897 -1.59885,-1.421254 0,-0.525358 0.45241,-1.504751 1.59885,-1.504751 0.88256,10e-7 1.59885,0.311419 1.59885,0.753279 0,0.692352 -0.71629,0.920273 -1.59885,0.920273 -1.08192,0 -1.59885,-0.895897 -1.59885,-1.421254 0,-0.525358 0.45241,-1.50475 1.59885,-1.50475 0.88256,0 1.59885,0.311417 1.59885,0.753278 0,0.692352 -0.71629,0.920273 -1.59885,0.920273 -1.08192,0 -1.59885,-0.895897 -1.59885,-1.421254 0,-0.525358 0.45241,-1.504751 1.59885,-1.504751 0.88256,0 1.59885,0.311418 1.59885,0.753279 0,0.692352 -0.71629,0.920273 -1.59885,0.920273 -1.08192,0 -1.59885,-0.895897 -1.59885,-1.421254 0,-0.525358 0.45241,-1.504751 1.59885,-1.504751 0.88256,0 1.59885,0.311418 1.59885,0.753279 0,0.692351 -0.71629,0.920273 -1.59885,0.920273 -1.08192,0 -1.59885,-0.895897 -1.59885,-1.421254 0,-0.525359 0.46624,-1.504751 1.6265,-1.484667 v -1.859201"
       style="fill:none;fill-opacity:1;fill-rule:nonzero;stroke:#000000;stroke-width:0.301467;stroke-miterlimit:4;stroke-opacity:1"
       id="path1628"
       inkscape:connector-curvature="0" />
    <path
       sodipodi:nodetypes="ccccccccccccccccccccccccccccccccccccccccccccccccccc"
       d="m 35.202285,124.3449 0.0646,-3.49871 c 0.8777,-0.0143 1.59399,0.29712 1.59399,0.73898 0,0.69236 -0.71629,0.92028 -1.59885,0.92028 -1.08192,0 -1.59885,-0.8959 -1.59885,-1.42126 0,-0.52535 0.45241,-1.50475 1.59885,-1.50475 0.88256,0 1.59885,0.31142 1.59885,0.75328 0,0.69235 -0.71629,0.92027 -1.59885,0.92027 -1.08192,0 -1.59885,-0.89589 -1.59885,-1.42125 0,-0.52536 0.45241,-1.50475 1.59885,-1.50475 0.88256,0 1.59885,0.31141 1.59885,0.75327 0,0.69236 -0.71629,0.92028 -1.59885,0.92028 -1.08192,0 -1.59885,-0.8959 -1.59885,-1.42126 0,-0.52536 0.45241,-1.50475 1.59885,-1.50475 0.88256,0 1.59885,0.31142 1.59885,0.75328 0,0.69235 -0.71629,0.92027 -1.59885,0.92027 -1.08192,0 -1.59885,-0.89589 -1.59885,-1.42125 0,-0.52536 0.45241,-1.50475 1.59885,-1.50475 0.88256,0 1.59885,0.31142 1.59885,0.75328 0,0.69235 -0.71629,0.92028 -1.59885,0.92028 -1.08192,0 -1.59885,-0.8959 -1.59885,-1.42126 0,-0.52536 0.45241,-1.50475 1.59885,-1.50475 0.88256,0 1.59885,0.31142 1.59885,0.75328 0,0.69235 -0.71629,0.92027 -1.59885,0.92027 -1.08192,0 -1.59885,-0.89589 -1.59885,-1.42125 0,-0.52536 0.45241,-1.50475 1.59885,-1.50475 0.88256,0 1.59885,0.31142 1.59885,0.75328 0,0.69235 -0.71629,0.92027 -1.59885,0.92027 -1.08192,0 -1.59885,-0.8959 -1.59885,-1.42125 0,-0.52536 0.45241,-1.50476 1.59885,-1.50476 0.88256,0 1.59885,0.31142 1.59885,0.75328 0,0.69235 -0.71629,0.92028 -1.59885,0.92028 -1.08192,0 -1.59885,-0.8959 -1.59885,-1.42126 0,-0.52536 0.45241,-1.50475 1.59885,-1.50475 0.88256,0 1.59885,0.31142 1.59885,0.75328 0,0.69235 -0.71629,0.92027 -1.59885,0.92027 -1.08192,0 -1.59885,-0.89589 -1.59885,-1.42125 0,-0.52536 0.45241,-1.50475 1.59885,-1.50475 0.88256,0 1.59885,0.31142 1.59885,0.75328 0,0.69235 -0.71629,0.92027 -1.59885,0.92027 -1.08192,0 -1.59885,-0.8959 -1.59885,-1.42125 0,-0.52536 0.45241,-1.50475 1.59885,-1.50475 0.88256,0 1.59885,0.31141 1.59885,0.75327 0,0.69236 -0.71629,0.92028 -1.59885,0.92028 -1.08192,0 -1.59885,-0.8959 -1.59885,-1.42126 0,-0.52535 0.45241,-1.50475 1.59885,-1.50475 0.88256,0 1.59885,0.31142 1.59885,0.75328 0,0.69235 -0.71629,0.92027 -1.59885,0.92027 -1.08192,0 -1.59885,-0.89589 -1.59885,-1.42125 0,-0.52536 0.46624,-1.50475 1.6265,-1.48467 v -1.8592"
       style="fill:none;fill-opacity:1;fill-rule:nonzero;stroke:#000000;stroke-width:0.301467;stroke-miterlimit:4;stroke-opacity:1"
       id="path1630"
       inkscape:connector-curvature="0" />
    <rect
       style="fill:#ffffff;stroke:#000000;stroke-width:0.92916;stroke-miterlimit:4;stroke-dasharray:none"
       id="rect1638"
       width="5.5812349"
       height="9.0306282"
       x="7.7264872"
       y="96.87471"
       ry="2.7906175" />
    <rect
       style="fill:#ffffff;stroke:#000000;stroke-width:0.92916;stroke-miterlimit:4;stroke-dasharray:none"
       id="rect1640"
       width="5.5812349"
       height="9.0306282"
       x="57.901142"
       y="96.87471"
       ry="2.7906175" />
    <rect
       style="fill:#ffffff;stroke:#000000;stroke-width:0.92916;stroke-miterlimit:4;stroke-dasharray:none"
       id="rect1642"
       width="5.5812349"
       height="9.0306282"
       x="73.164665"
       y="-39.736759"
       ry="2.7906175"
       transform="rotate(90)" />
    <rect
       style="fill:#ffffff;stroke:#000000;stroke-width:0.92916;stroke-miterlimit:4;stroke-dasharray:none"
       id="rect1644"
       width="5.5812349"
       height="9.0306282"
       x="124.2685"
       y="-39.736759"
       ry="2.7906175"
       transform="rotate(90)" />
    <rect
       style="fill:none;fill-opacity:1;stroke:#000000;stroke-width:0.92916;stroke-miterlimit:4;stroke-dasharray:none"
       id="rect1646"
       width="33.827354"
       height="24.939222"
       x="34.95562"
       y="89.227188"
       ry="0" />
    <rect
       style="fill:none;fill-opacity:1;stroke:#000000;stroke-width:0.92916;stroke-miterlimit:4;stroke-dasharray:none"
       id="rect1646-6"
       width="130.78801"
       height="83.061836"
       x="48.068043"
       y="0.16283436"
       ry="0" />
    <path
       style="fill:none;stroke:#000000;stroke-width:0.46458px;stroke-linecap:butt;stroke-linejoin:miter;stroke-opacity:1;marker-start:url(#Arrow2Lstart)"
       d="M 2.1485148,89.893781 C 3.8641588,75.191911 11.532228,66.691972 26.079174,65.359252"
       id="path1668"
       sodipodi:nodetypes="cc" />
    <text
       xml:space="preserve"
       style="font-style:normal;font-weight:normal;font-size:18.5832px;line-height:1.25;font-family:sans-serif;fill:#000000;fill-opacity:1;stroke:none;stroke-width:0.46458"
       x="9.6972599"
       y="63.467941"
       id="text2026"><tspan
         sodipodi:role="line"
         id="tspan2024"
         x="9.6972599"
         y="63.467941"
         style="stroke-width:0.46458">Ω</tspan></text>
    <path
       style="fill:none;stroke:#000000;stroke-width:0.46458px;stroke-linecap:butt;stroke-linejoin:miter;stroke-opacity:1"
       d="M 48.068044,0.16283436 34.95562,89.227188"
       id="path2028" />
    <path
       style="fill:none;stroke:#000000;stroke-width:0.46458px;stroke-linecap:butt;stroke-linejoin:miter;stroke-opacity:1"
       d="M 68.782974,114.16641 178.85605,83.224671"
       id="path2030" />
    <path
       sodipodi:nodetypes="ccccccccccccccccccccccccccccccccccccccccccccccccccc"
       d="m 128.46622,39.966454 -11.23425,-0.207427 c -0.0459,-2.818266 0.95407,-5.118236 2.37286,-5.118236 2.22313,0 2.95498,2.29997 2.95498,5.13384 0,3.474009 -2.8767,5.133855 -4.5636,5.133855 -1.68691,0 -4.83171,-1.452674 -4.83172,-5.133855 0,-2.83387 0.99996,-5.13384 2.41876,-5.13384 2.2231,0 2.95496,2.29997 2.95496,5.13384 0,3.474009 -2.87669,5.133855 -4.5636,5.133855 -1.6869,0 -4.8317,-1.452674 -4.8317,-5.133855 -2e-5,-2.83387 0.99994,-5.13384 2.41874,-5.13384 2.22312,0 2.95497,2.29997 2.95497,5.13384 0,3.474009 -2.8767,5.133855 -4.5636,5.133855 -1.68691,0 -4.83171,-1.452674 -4.83171,-5.133855 0,-2.83387 0.99996,-5.13384 2.41876,-5.13384 2.22311,0 2.95497,2.29997 2.95497,5.13384 0,3.474009 -2.8767,5.133855 -4.56361,5.133855 -1.6869,0 -4.8317,-1.452674 -4.83169,-5.133855 0,-2.83387 0.99996,-5.13384 2.41877,-5.13384 2.22311,0 2.95496,2.29997 2.95496,5.13384 0,3.474009 -2.8767,5.133855 -4.56361,5.133855 -1.6869,0 -4.831702,-1.452674 -4.831702,-5.133855 0,-2.83387 0.999949,-5.13384 2.418753,-5.13384 2.223119,0 2.954969,2.29997 2.954969,5.13384 0,3.474009 -2.8767,5.133855 -4.563603,5.133855 -1.686909,0 -4.831704,-1.452674 -4.831704,-5.133855 0,-2.83387 0.999951,-5.13384 2.418751,-5.13384 2.223116,0 2.954969,2.29997 2.954969,5.13384 0,3.474009 -2.876699,5.133855 -4.563603,5.133855 -1.686907,0 -4.831705,-1.452674 -4.831705,-5.133855 0,-2.83387 0.999953,-5.13384 2.418754,-5.13384 2.223116,0 2.954967,2.29997 2.954967,5.13384 0,3.474009 -2.876695,5.133855 -4.5636,5.133855 -1.686906,0 -4.831706,-1.452674 -4.831706,-5.133855 4e-6,-2.83387 0.999957,-5.13384 2.418755,-5.13384 2.223119,0 2.954965,2.29997 2.954965,5.13384 0,3.474009 -2.876695,5.133855 -4.563598,5.133855 -1.686907,0 -4.831702,-1.452674 -4.831702,-5.133855 0,-2.83387 0.999949,-5.13384 2.41875,-5.13384 2.223118,0 2.954966,2.29997 2.954966,5.13384 0,3.474009 -2.876695,5.133855 -4.563599,5.133855 -1.686906,0 -4.831704,-1.452674 -4.831704,-5.133855 0,-2.83387 0.999952,-5.13384 2.418753,-5.13384 2.223119,0 2.954965,2.29997 2.954965,5.13384 0,3.474009 -2.876695,5.133855 -4.563599,5.133855 -1.686908,0 -4.831705,-1.452674 -4.831705,-5.133855 0,-2.83387 0.999954,-5.13384 2.418755,-5.13384 2.223116,0 2.954964,2.29997 2.954964,5.13384 0,3.474009 -2.876695,5.133855 -4.563598,5.133855 -1.68691,0 -4.831705,-1.497082 -4.767215,-5.222639 H 63.02172"
       style="fill:none;fill-opacity:1;fill-rule:nonzero;stroke:#000000;stroke-width:0.968007;stroke-miterlimit:4;stroke-opacity:1"
       id="path5102-7"
       inkscape:connector-curvature="0" />
    <rect
       style="fill:#ffffff;stroke:#000000;stroke-width:2.9835;stroke-miterlimit:4;stroke-dasharray:none"
       id="rect1640-5"
       width="17.921158"
       height="28.997044"
       x="129.84647"
       y="26.362656"
       ry="8.9605789" />
    <g
       id="g2095">
      <path
         style="fill:none;stroke:#000000;stroke-width:0.46458px;stroke-linecap:butt;stroke-linejoin:miter;stroke-opacity:1"
         d="M 64.132495,24.709066 H 161.77404"
         id="path2080" />
      <path
         style="fill:none;stroke:#000000;stroke-width:0.46458px;stroke-linecap:butt;stroke-linejoin:miter;stroke-opacity:1"
         d="M 98.385352,24.46665 113.86852,12.521988"
         id="path2082" />
      <path
         style="fill:none;stroke:#000000;stroke-width:0.46458px;stroke-linecap:butt;stroke-linejoin:miter;stroke-opacity:1"
         d="M 76.085512,24.758634 91.568685,12.813972"
         id="path2084" />
      <path
         style="fill:none;stroke:#000000;stroke-width:0.46458px;stroke-linecap:butt;stroke-linejoin:miter;stroke-opacity:1"
         d="M 122.54351,24.46665 138.02668,12.521988"
         id="path2086" />
      <path
         style="fill:none;stroke:#000000;stroke-width:0.46458px;stroke-linecap:butt;stroke-linejoin:miter;stroke-opacity:1"
         d="M 145.77251,24.46665 161.25568,12.521988"
         id="path2088" />
    </g>
    <g
       id="g2123"
       transform="rotate(180,112.95327,40.940151)">
      <path
         style="fill:none;stroke:#000000;stroke-width:0.46458px;stroke-linecap:butt;stroke-linejoin:miter;stroke-opacity:1"
         d="M 64.132495,24.709066 H 161.77404"
         id="path2113" />
      <path
         style="fill:none;stroke:#000000;stroke-width:0.46458px;stroke-linecap:butt;stroke-linejoin:miter;stroke-opacity:1"
         d="M 98.385352,24.46665 113.86852,12.521988"
         id="path2115" />
      <path
         style="fill:none;stroke:#000000;stroke-width:0.46458px;stroke-linecap:butt;stroke-linejoin:miter;stroke-opacity:1"
         d="M 76.085512,24.758634 91.568685,12.813972"
         id="path2117" />
      <path
         style="fill:none;stroke:#000000;stroke-width:0.46458px;stroke-linecap:butt;stroke-linejoin:miter;stroke-opacity:1"
         d="M 122.54351,24.46665 138.02668,12.521988"
         id="path2119" />
      <path
         style="fill:none;stroke:#000000;stroke-width:0.46458px;stroke-linecap:butt;stroke-linejoin:miter;stroke-opacity:1"
         d="M 145.77251,24.46665 161.25568,12.521988"
         id="path2121" />
    </g>
    <rect
       style="fill:none;fill-opacity:1;stroke:#000000;stroke-width:0.92916;stroke-miterlimit:4;stroke-dasharray:none"
       id="rect2125"
       width="6.1287842"
       height="6.0012102"
       x="57.167862"
       y="37.173626"
       ry="2.7149549" />
    <text
       xml:space="preserve"
       style="font-style:normal;font-weight:normal;font-size:11.1499px;line-height:1.25;font-family:sans-serif;fill:#000000;fill-opacity:1;stroke:none;stroke-width:0.46458"
       x="133.00298"
       y="48.470501"
       id="text2129"><tspan
         sodipodi:role="line"
         id="tspan2127"
         x="133.00298"
         y="48.470501"
         style="font-size:11.1499px;stroke-width:0.46458">m</tspan></text>
    <text
       xml:space="preserve"
       style="font-style:normal;font-weight:normal;font-size:11.1499px;line-height:1.25;font-family:sans-serif;fill:#000000;fill-opacity:1;stroke:none;stroke-width:0.46458"
       x="95.477051"
       y="55.412708"
       id="text2129-3"><tspan
         sodipodi:role="line"
         id="tspan2127-5"
         x="95.477051"
         y="55.412708"
         style="font-size:11.1499px;stroke-width:0.46458">k</tspan></text>
    <path
       style="fill:none;stroke:#000000;stroke-width:0.46458px;stroke-linecap:butt;stroke-linejoin:miter;stroke-opacity:1;marker-start:url(#marker2165);marker-end:url(#Arrow2Lend)"
       d="M 160.20914,39.775681 H 51.518387 V 5.78715"
       id="path2155" />
    <text
       xml:space="preserve"
       style="font-style:normal;font-weight:normal;font-size:11.1499px;line-height:1.25;font-family:sans-serif;fill:#000000;fill-opacity:1;stroke:none;stroke-width:0.46458"
       x="162.13173"
       y="47.285473"
       id="text2273"><tspan
         sodipodi:role="line"
         id="tspan2271"
         x="162.13173"
         y="47.285473"
         style="font-size:11.1499px;stroke-width:0.46458">x'</tspan></text>
    <text
       xml:space="preserve"
       style="font-style:normal;font-weight:normal;font-size:11.1499px;line-height:1.25;font-family:sans-serif;fill:#000000;fill-opacity:1;stroke:none;stroke-width:0.46458"
       x="56.865654"
       y="11.74797"
       id="text2273-6"><tspan
         sodipodi:role="line"
         id="tspan2271-2"
         x="56.865654"
         y="11.74797"
         style="font-size:11.1499px;stroke-width:0.46458">y'</tspan></text>
    <rect
       style="fill:none;fill-opacity:1;stroke:#000000;stroke-width:0.92916;stroke-miterlimit:4;stroke-dasharray:none"
       id="rect2317"
       width="60.818512"
       height="61.301205"
       x="5.0003343"
       y="70.894058"
       ry="30.409256" />
  </g>
</svg>
